Coordinates
version=1
nRows=10
nColumns=34
inDegrees=yes

Units are S.I. units (second, meters, Newtons, ...)
If the header above contains a line with 'inDegrees', this indicates whether rotational values are in degrees (yes) or radians (no).

endheader
time	pelvis_tilt	pelvis_list	pelvis_rotation	pelvis_tx	pelvis_ty	pelvis_tz	hip_flexion_r	hip_adduction_r	hip_rotation_r	knee_angle_r	ankle_angle_r	subtalar_angle_r	mtp_angle_r	hip_flexion_l	hip_adduction_l	hip_rotation_l	knee_angle_l	ankle_angle_l	subtalar_angle_l	mtp_angle_l	lumbar_extension	lumbar_bending	lumbar_rotation	arm_flex_r	arm_add_r	arm_rot_r	elbow_flex_r	pro_sup_r	arm_flex_l	arm_add_l	arm_rot_l	elbow_flex_l	pro_sup_l
      6.85000000	    -26.56467903	      1.81160427	      0.95503862	      0.52896454	      0.95276600	     -0.05615480	     65.29149915	    -19.02770040	    -15.08892477	     62.31638726	     15.56412185	    -28.99268273	      0.00000000	     65.63705884	    -10.85197792	     -8.99585487	     61.11269740	     23.84671456	    -11.70925080	      0.00000000	    -14.46307628	     -0.54658124	     -3.69386441	    100.23165020	     -2.21172990	     31.57086851	     52.49036309	     70.68311786	    105.00254082	     -4.65428549	     42.30637313	     45.82367138	     21.21428727
      6.86666670	    -28.17518437	      2.40576191	      0.85649374	      0.51899963	      0.94061132	     -0.05504774	     68.78031513	    -19.46610678	    -14.02548748	     64.34819360	     15.48487411	    -29.50106682	      0.00000000	     68.38985686	    -10.99457538	     -9.45336088	     62.90599709	     24.83545802	    -11.05606887	      0.00000000	    -14.45655892	     -1.10198580	     -4.14324655	    101.36895958	     -1.59701488	     31.64251537	     52.29535916	     70.46549204	    106.61335781	     -5.04902518	     42.49349406	     45.60927645	     21.00163539
      6.88333330	    -29.60034805	      2.58254626	      1.14361396	      0.52033435	      0.92164484	     -0.05508100	     71.76898847	    -20.08358803	    -13.60968251	     66.59603832	     15.22416636	    -30.67419767	      0.00000000	     71.11254554	    -11.11870471	     -9.48605896	     64.90627943	     25.90353076	    -10.49376836	      0.00000000	    -14.65243244	     -1.04272772	     -4.58969878	    102.55670360	     -1.45524384	     31.37850924	     52.77545439	     70.24025236	    108.46379664	     -5.20533064	     42.70581648	     45.60245756	     20.79783326
      6.90000000	    -30.88050212	      2.50566803	      2.02122435	      0.51524949	      0.91174785	     -0.05354693	     74.34526958	    -20.77325799	    -13.21692555	     68.66596603	     14.40051390	    -32.45442521	      0.00000000	     73.70063066	    -10.87749461	     -9.27823994	     66.55180934	     26.59577487	     -9.99116463	      0.00000000	    -15.34154296	     -0.81703755	     -5.23460353	    103.82778731	     -1.80088296	     31.12213356	     53.46907855	     69.97813487	    110.90176603	     -4.85453428	     43.49584043	     44.88637178	     20.40922516
      6.91666670	    -32.04957539	      2.61248211	      2.48524244	      0.51013063	      0.89019469	     -0.05572802	     77.74841311	    -21.38744021	    -12.42207967	     71.46357438	     14.42766360	    -33.47288749	      0.00000000	     76.51913101	    -10.74903950	     -9.13342191	     68.79907474	     28.09858412	     -9.32025106	      0.00000000	    -15.87597750	     -0.69106854	     -5.66818594	    105.56363814	     -1.69029711	     31.14899158	     53.05057047	     69.87919311	    112.80732363	     -4.81863134	     43.41696201	     44.09904978	     20.19874068
      6.93333330	    -33.29912312	      2.65014336	      3.03285836	      0.50932859	      0.87691984	     -0.05560291	     80.81598048	    -21.96400295	    -11.71220560	     73.77209408	     14.15959907	    -34.58937987	      0.00000000	     79.35128593	    -10.67117553	     -9.07392941	     70.89183545	     28.25435956	     -9.81029910	      0.00000000	    -16.01127448	     -0.58974181	     -5.08695323	    107.36211230	     -2.53214628	     31.31137225	     52.28649082	     69.72675644	    113.50478573	     -3.50067121	     42.78478105	     43.12871224	     19.92800973
      6.95000000	    -34.47238940	      2.68306647	      3.51494192	      0.50350170	      0.85611098	     -0.05360669	     84.12834281	    -22.43515156	    -10.89352197	     76.37914001	     14.78728285	    -35.00000000	      0.00000000	     82.21103973	    -10.74945961	     -8.99417075	     73.11882209	     28.77581620	     -9.87724491	      0.00000000	    -16.22564103	     -0.60953602	     -4.15130922	    109.51934928	     -3.62200579	     32.28655084	     51.57609828	     69.29710493	    114.04419448	     -1.55014135	     40.53875262	     41.62288437	     19.57954167
      6.96666670	    -35.60788059	      2.62237459	      3.79436713	      0.50244763	      0.84177152	     -0.05394066	     87.14023949	    -22.72372118	    -10.28250697	     78.66423830	     15.73012216	    -35.00000000	      0.00000000	     84.97529662	    -10.97446221	     -8.77298365	     75.43920638	     29.92843424	     -9.16516835	      0.00000000	    -16.43760943	     -0.57904786	     -2.93038733	    111.25302043	     -5.28829583	     33.13465964	     52.12520791	     68.74020667	    114.20301335	      0.36725683	     38.17825416	     41.17693241	     19.63370669
      6.98333330	    -36.63636304	      2.72731860	      3.82186331	      0.49120509	      0.82196251	     -0.05386933	     90.54700439	    -22.78590261	     -9.24963756	     81.25423589	     16.30051459	    -35.00000000	      0.00000000	     88.16129691	    -11.24193085	     -8.28188454	     78.31230611	     31.47801296	     -7.71110612	      0.00000000	    -16.82056855	     -0.71662397	     -1.98742637	    113.22243809	     -6.29557443	     34.16411642	     53.47356358	     68.54033438	    115.21687905	      1.59568509	     37.08108151	     40.98174980	     19.83764210
      7.00000000	    -37.25051227	      2.56745133	      3.98392495	      0.49632510	      0.80410842	     -0.05273057	     93.34297055	    -22.76429138	     -8.33327936	     84.22894922	     17.67542369	    -35.00000000	      0.00000000	     90.66795321	    -11.61738600	     -7.65615321	     80.91230452	     32.61471494	     -6.75411458	      0.00000000	    -17.49416091	     -0.46554873	     -1.45680790	    114.94874001	     -7.20254045	     35.01971438	     53.66757844	     68.00591091	    116.96550633	      3.22759952	     35.39338398	     39.01645496	     20.16645734
